{
    "asset" : {
        "generator" : "Khronos glTF Blender I/O v1.1.46",
        "version" : "2.0"
    },
    "scene" : 0,
    "scenes" : [
        {
            "name" : "Scene",
            "nodes" : [
                0,
                1,
                2,
                3,
                4,
                5,
                6,
                7,
                8,
                9,
                10
            ]
        }
    ],
    "nodes" : [
        {
            "name" : "Camera",
            "rotation" : [
                0.6170044541358948,
                0,
                0,
                0.7869596481323242
            ],
            "translation" : [
                0,
                12.055183410644531,
                53.131797790527344
            ]
        },
        {
            "mesh" : 0,
            "name" : "prato.001",
            "rotation" : [
                0,
                -0.9999533891677856,
                0,
                -0.009653819724917412
            ],
            "scale" : [
                12.351669311523438,
                0.5268750190734863,
                -11.677170753479004
            ],
            "translation" : [
                0.10655590891838074,
                -2.236271381378174,
                -1.9390029907226562
            ]
        },
        {
            "mesh" : 1,
            "name" : "isola",
            "rotation" : [
                0,
                -0.1389450579881668,
                0,
                0.9903001189231873
            ],
            "scale" : [
                11.290885925292969,
                0.6140381097793579,
                -10.829182624816895
            ],
            "translation" : [
                0.5665388107299805,
                -1.3593565225601196,
                -1.9390029907226562
            ]
        },
        {
            "mesh" : 2,
            "name" : "nuvola.002",
            "rotation" : [
                -0.14672212302684784,
                0,
                0,
                0.9891777634620667
            ],
            "scale" : [
                1.967432975769043,
                0.5777382850646973,
                0.5777382850646973
            ],
            "translation" : [
                -3.397571086883545,
                6.367990493774414,
                2.0413870811462402
            ]
        },
        {
            "mesh" : 3,
            "name" : "nuvola.001",
            "rotation" : [
                0.0012787309242412448,
                -0.9891401529312134,
                -0.14671654999256134,
                -0.008621005341410637
            ],
            "scale" : [
                1.3303046226501465,
                0.39064502716064453,
                0.39064496755599976
            ],
            "translation" : [
                1.5788588523864746,
                4.886946201324463,
                -0.1773216724395752
            ]
        },
        {
            "mesh" : 4,
            "name" : "nuvola",
            "rotation" : [
                0.0012787309242412448,
                -0.9891401529312134,
                -0.14671654999256134,
                -0.008621005341410637
            ],
            "scale" : [
                1.3303046226501465,
                0.39064502716064453,
                0.39064496755599976
            ],
            "translation" : [
                -7.266343116760254,
                4.809050559997559,
                -4.318568706512451
            ]
        },
        {
            "mesh" : 5,
            "name" : "albero",
            "scale" : [
                0.4066069424152374,
                1.8654652833938599,
                0.4066069424152374
            ],
            "translation" : [
                8.671804428100586,
                -0.6295078992843628,
                0.041964054107666016
            ]
        },
        {
            "mesh" : 6,
            "name" : "foglie.001",
            "translation" : [
                11.000905990600586,
                4.921369552612305,
                -0.01164865493774414
            ]
        },
        {
            "mesh" : 7,
            "name" : "foglie.003",
            "translation" : [
                7.416273593902588,
                6.165848731994629,
                -0.01164865493774414
            ]
        },
        {
            "mesh" : 8,
            "name" : "foglie.002",
            "translation" : [
                7.416273593902588,
                3.4756884574890137,
                -3.107050895690918
            ]
        },
        {
            "mesh" : 9,
            "name" : "foglie",
            "translation" : [
                6.473037242889404,
                4.9129533767700195,
                2.7622199058532715
            ]
        }
    ],
    "materials" : [
        {
            "doubleSided" : true,
            "emissiveFactor" : [
                0,
                0,
                0
            ],
            "name" : "grass",
            "pbrMetallicRoughness" : {
                "baseColorFactor" : [
                    0.008306946605443954,
                    0.5420869588851929,
                    0,
                    1
                ],
                "metallicFactor" : 0,
                "roughnessFactor" : 0.5
            }
        },
        {
            "doubleSided" : true,
            "emissiveFactor" : [
                0,
                0,
                0
            ],
            "name" : "soil",
            "pbrMetallicRoughness" : {
                "baseColorFactor" : [
                    0.08552484959363937,
                    0.028130972757935524,
                    0.00446136062964797,
                    1
                ],
                "metallicFactor" : 0,
                "roughnessFactor" : 0.5
            }
        },
        {
            "doubleSided" : true,
            "emissiveFactor" : [
                0.27005088329315186,
                0.27005088329315186,
                0.27005088329315186
            ],
            "name" : "nuvola",
            "pbrMetallicRoughness" : {
                "baseColorFactor" : [
                    1,
                    0.8445319533348083,
                    0.8573880195617676,
                    1
                ],
                "metallicFactor" : 0,
                "roughnessFactor" : 0.5
            }
        },
        {
            "doubleSided" : true,
            "emissiveFactor" : [
                0,
                0,
                0
            ],
            "name" : "wood",
            "pbrMetallicRoughness" : {
                "baseColorFactor" : [
                    0.2920224666595459,
                    0.1625600904226303,
                    0.018360085785388947,
                    1
                ],
                "metallicFactor" : 0,
                "roughnessFactor" : 0.5
            }
        },
        {
            "doubleSided" : true,
            "emissiveFactor" : [
                0,
                0,
                0
            ],
            "name" : "albero",
            "pbrMetallicRoughness" : {
                "baseColorFactor" : [
                    0.015364591963589191,
                    0.24859121441841125,
                    0.003966920543462038,
                    1
                ],
                "metallicFactor" : 0,
                "roughnessFactor" : 0.5
            }
        }
    ],
    "meshes" : [
        {
            "name" : "prato.001",
            "primitives" : [
                {
                    "attributes" : {
                        "POSITION" : 0,
                        "NORMAL" : 1,
                        "TEXCOORD_0" : 2
                    },
                    "indices" : 3,
                    "material" : 0
                }
            ]
        },
        {
            "name" : "isola",
            "primitives" : [
                {
                    "attributes" : {
                        "POSITION" : 4,
                        "NORMAL" : 5,
                        "TEXCOORD_0" : 6
                    },
                    "indices" : 7,
                    "material" : 1
                }
            ]
        },
        {
            "name" : "nuvola",
            "primitives" : [
                {
                    "attributes" : {
                        "POSITION" : 8,
                        "NORMAL" : 9,
                        "TEXCOORD_0" : 10
                    },
                    "indices" : 11,
                    "material" : 2
                }
            ]
        },
        {
            "name" : "nuvola.001",
            "primitives" : [
                {
                    "attributes" : {
                        "POSITION" : 12,
                        "NORMAL" : 13,
                        "TEXCOORD_0" : 14
                    },
                    "indices" : 15,
                    "material" : 2
                }
            ]
        },
        {
            "name" : "nuvola.002",
            "primitives" : [
                {
                    "attributes" : {
                        "POSITION" : 16,
                        "NORMAL" : 17,
                        "TEXCOORD_0" : 18
                    },
                    "indices" : 19,
                    "material" : 2
                }
            ]
        },
        {
            "name" : "tronco",
            "primitives" : [
                {
                    "attributes" : {
                        "POSITION" : 20,
                        "NORMAL" : 21,
                        "TEXCOORD_0" : 22
                    },
                    "indices" : 23,
                    "material" : 3
                }
            ]
        },
        {
            "name" : "foglie",
            "primitives" : [
                {
                    "attributes" : {
                        "POSITION" : 24,
                        "NORMAL" : 25,
                        "TEXCOORD_0" : 26
                    },
                    "indices" : 27,
                    "material" : 4
                }
            ]
        },
        {
            "name" : "foglie.001",
            "primitives" : [
                {
                    "attributes" : {
                        "POSITION" : 28,
                        "NORMAL" : 29,
                        "TEXCOORD_0" : 30
                    },
                    "indices" : 31,
                    "material" : 4
                }
            ]
        },
        {
            "name" : "foglie.002",
            "primitives" : [
                {
                    "attributes" : {
                        "POSITION" : 32,
                        "NORMAL" : 33,
                        "TEXCOORD_0" : 34
                    },
                    "indices" : 35,
                    "material" : 4
                }
            ]
        },
        {
            "name" : "foglie.003",
            "primitives" : [
                {
                    "attributes" : {
                        "POSITION" : 36,
                        "NORMAL" : 37,
                        "TEXCOORD_0" : 38
                    },
                    "indices" : 39,
                    "material" : 4
                }
            ]
        }
    ],
    "accessors" : [
        {
            "bufferView" : 0,
            "componentType" : 5126,
            "count" : 344,
            "max" : [
                1,
                1.699042558670044,
                1
            ],
            "min" : [
                -1,
                -5.629219055175781,
                -1
            ],
            "type" : "VEC3"
        },
        {
            "bufferView" : 1,
            "componentType" : 5126,
            "count" : 344,
            "type" : "VEC3"
        },
        {
            "bufferView" : 2,
            "componentType" : 5126,
            "count" : 344,
            "type" : "VEC2"
        },
        {
            "bufferView" : 3,
            "componentType" : 5123,
            "count" : 516,
            "type" : "SCALAR"
        },
        {
            "bufferView" : 4,
            "componentType" : 5126,
            "count" : 512,
            "max" : [
                1.0302718877792358,
                -1.9058198928833008,
                1.038771390914917
            ],
            "min" : [
                -0.994041919708252,
                -22.851362228393555,
                -1.0268759727478027
            ],
            "type" : "VEC3"
        },
        {
            "bufferView" : 5,
            "componentType" : 5126,
            "count" : 512,
            "type" : "VEC3"
        },
        {
            "bufferView" : 6,
            "componentType" : 5126,
            "count" : 512,
            "type" : "VEC2"
        },
        {
            "bufferView" : 7,
            "componentType" : 5123,
            "count" : 768,
            "type" : "SCALAR"
        },
        {
            "bufferView" : 8,
            "componentType" : 5126,
            "count" : 264,
            "max" : [
                2.0792524814605713,
                1.5432074069976807,
                1.7545098066329956
            ],
            "min" : [
                -1.0891027450561523,
                -1.4819754362106323,
                -1.7545104026794434
            ],
            "type" : "VEC3"
        },
        {
            "bufferView" : 9,
            "componentType" : 5126,
            "count" : 264,
            "type" : "VEC3"
        },
        {
            "bufferView" : 10,
            "componentType" : 5126,
            "count" : 264,
            "type" : "VEC2"
        },
        {
            "bufferView" : 11,
            "componentType" : 5123,
            "count" : 408,
            "type" : "SCALAR"
        },
        {
            "bufferView" : 12,
            "componentType" : 5126,
            "count" : 264,
            "max" : [
                2.0792524814605713,
                1.5654475688934326,
                1.7545098066329956
            ],
            "min" : [
                -1.0891027450561523,
                -1.7200489044189453,
                -1.7545104026794434
            ],
            "type" : "VEC3"
        },
        {
            "bufferView" : 13,
            "componentType" : 5126,
            "count" : 264,
            "type" : "VEC3"
        },
        {
            "bufferView" : 14,
            "componentType" : 5126,
            "count" : 264,
            "type" : "VEC2"
        },
        {
            "bufferView" : 15,
            "componentType" : 5123,
            "count" : 408,
            "type" : "SCALAR"
        },
        {
            "bufferView" : 16,
            "componentType" : 5126,
            "count" : 264,
            "max" : [
                2.0792524814605713,
                1.0491784811019897,
                1.1981091499328613
            ],
            "min" : [
                -1.0891027450561523,
                -1.0707874298095703,
                -1.1981091499328613
            ],
            "type" : "VEC3"
        },
        {
            "bufferView" : 17,
            "componentType" : 5126,
            "count" : 264,
            "type" : "VEC3"
        },
        {
            "bufferView" : 18,
            "componentType" : 5126,
            "count" : 264,
            "type" : "VEC2"
        },
        {
            "bufferView" : 19,
            "componentType" : 5123,
            "count" : 408,
            "type" : "SCALAR"
        },
        {
            "bufferView" : 20,
            "componentType" : 5126,
            "count" : 344,
            "max" : [
                6.978001594543457,
                3.2141823768615723,
                6.865095138549805
            ],
            "min" : [
                -6.891478538513184,
                -1.0000011920928955,
                -8.44268798828125
            ],
            "type" : "VEC3"
        },
        {
            "bufferView" : 21,
            "componentType" : 5126,
            "count" : 344,
            "type" : "VEC3"
        },
        {
            "bufferView" : 22,
            "componentType" : 5126,
            "count" : 344,
            "type" : "VEC2"
        },
        {
            "bufferView" : 23,
            "componentType" : 5123,
            "count" : 516,
            "type" : "SCALAR"
        },
        {
            "bufferView" : 24,
            "componentType" : 5126,
            "count" : 96,
            "max" : [
                1.9343355894088745,
                1.4625260829925537,
                1.9749351739883423
            ],
            "min" : [
                -1.9749356508255005,
                -1.1712560653686523,
                -1.9343360662460327
            ],
            "type" : "VEC3"
        },
        {
            "bufferView" : 25,
            "componentType" : 5126,
            "count" : 96,
            "type" : "VEC3"
        },
        {
            "bufferView" : 26,
            "componentType" : 5126,
            "count" : 96,
            "type" : "VEC2"
        },
        {
            "bufferView" : 27,
            "componentType" : 5123,
            "count" : 144,
            "type" : "SCALAR"
        },
        {
            "bufferView" : 28,
            "componentType" : 5126,
            "count" : 96,
            "max" : [
                2.0053625106811523,
                1.2110795974731445,
                1.827294111251831
            ],
            "min" : [
                -1.8272945880889893,
                -1.2428826093673706,
                -1.9277809858322144
            ],
            "type" : "VEC3"
        },
        {
            "bufferView" : 29,
            "componentType" : 5126,
            "count" : 96,
            "type" : "VEC3"
        },
        {
            "bufferView" : 30,
            "componentType" : 5126,
            "count" : 96,
            "type" : "VEC2"
        },
        {
            "bufferView" : 31,
            "componentType" : 5123,
            "count" : 144,
            "type" : "SCALAR"
        },
        {
            "bufferView" : 32,
            "componentType" : 5126,
            "count" : 96,
            "max" : [
                2.084909439086914,
                1.5274591445922852,
                2.1600921154022217
            ],
            "min" : [
                -2.16009259223938,
                -1.3675557374954224,
                -2.0849099159240723
            ],
            "type" : "VEC3"
        },
        {
            "bufferView" : 33,
            "componentType" : 5126,
            "count" : 96,
            "type" : "VEC3"
        },
        {
            "bufferView" : 34,
            "componentType" : 5126,
            "count" : 96,
            "type" : "VEC2"
        },
        {
            "bufferView" : 35,
            "componentType" : 5123,
            "count" : 144,
            "type" : "SCALAR"
        },
        {
            "bufferView" : 36,
            "componentType" : 5126,
            "count" : 96,
            "max" : [
                1.8931139707565308,
                1.099683165550232,
                1.9648882150650024
            ],
            "min" : [
                -1.9186992645263672,
                -1.2193955183029175,
                -1.9685685634613037
            ],
            "type" : "VEC3"
        },
        {
            "bufferView" : 37,
            "componentType" : 5126,
            "count" : 96,
            "type" : "VEC3"
        },
        {
            "bufferView" : 38,
            "componentType" : 5126,
            "count" : 96,
            "type" : "VEC2"
        },
        {
            "bufferView" : 39,
            "componentType" : 5123,
            "count" : 144,
            "type" : "SCALAR"
        }
    ],
    "bufferViews" : [
        {
            "buffer" : 0,
            "byteLength" : 4128,
            "byteOffset" : 0
        },
        {
            "buffer" : 0,
            "byteLength" : 4128,
            "byteOffset" : 4128
        },
        {
            "buffer" : 0,
            "byteLength" : 2752,
            "byteOffset" : 8256
        },
        {
            "buffer" : 0,
            "byteLength" : 1032,
            "byteOffset" : 11008
        },
        {
            "buffer" : 0,
            "byteLength" : 6144,
            "byteOffset" : 12040
        },
        {
            "buffer" : 0,
            "byteLength" : 6144,
            "byteOffset" : 18184
        },
        {
            "buffer" : 0,
            "byteLength" : 4096,
            "byteOffset" : 24328
        },
        {
            "buffer" : 0,
            "byteLength" : 1536,
            "byteOffset" : 28424
        },
        {
            "buffer" : 0,
            "byteLength" : 3168,
            "byteOffset" : 29960
        },
        {
            "buffer" : 0,
            "byteLength" : 3168,
            "byteOffset" : 33128
        },
        {
            "buffer" : 0,
            "byteLength" : 2112,
            "byteOffset" : 36296
        },
        {
            "buffer" : 0,
            "byteLength" : 816,
            "byteOffset" : 38408
        },
        {
            "buffer" : 0,
            "byteLength" : 3168,
            "byteOffset" : 39224
        },
        {
            "buffer" : 0,
            "byteLength" : 3168,
            "byteOffset" : 42392
        },
        {
            "buffer" : 0,
            "byteLength" : 2112,
            "byteOffset" : 45560
        },
        {
            "buffer" : 0,
            "byteLength" : 816,
            "byteOffset" : 47672
        },
        {
            "buffer" : 0,
            "byteLength" : 3168,
            "byteOffset" : 48488
        },
        {
            "buffer" : 0,
            "byteLength" : 3168,
            "byteOffset" : 51656
        },
        {
            "buffer" : 0,
            "byteLength" : 2112,
            "byteOffset" : 54824
        },
        {
            "buffer" : 0,
            "byteLength" : 816,
            "byteOffset" : 56936
        },
        {
            "buffer" : 0,
            "byteLength" : 4128,
            "byteOffset" : 57752
        },
        {
            "buffer" : 0,
            "byteLength" : 4128,
            "byteOffset" : 61880
        },
        {
            "buffer" : 0,
            "byteLength" : 2752,
            "byteOffset" : 66008
        },
        {
            "buffer" : 0,
            "byteLength" : 1032,
            "byteOffset" : 68760
        },
        {
            "buffer" : 0,
            "byteLength" : 1152,
            "byteOffset" : 69792
        },
        {
            "buffer" : 0,
            "byteLength" : 1152,
            "byteOffset" : 70944
        },
        {
            "buffer" : 0,
            "byteLength" : 768,
            "byteOffset" : 72096
        },
        {
            "buffer" : 0,
            "byteLength" : 288,
            "byteOffset" : 72864
        },
        {
            "buffer" : 0,
            "byteLength" : 1152,
            "byteOffset" : 73152
        },
        {
            "buffer" : 0,
            "byteLength" : 1152,
            "byteOffset" : 74304
        },
        {
            "buffer" : 0,
            "byteLength" : 768,
            "byteOffset" : 75456
        },
        {
            "buffer" : 0,
            "byteLength" : 288,
            "byteOffset" : 76224
        },
        {
            "buffer" : 0,
            "byteLength" : 1152,
            "byteOffset" : 76512
        },
        {
            "buffer" : 0,
            "byteLength" : 1152,
            "byteOffset" : 77664
        },
        {
            "buffer" : 0,
            "byteLength" : 768,
            "byteOffset" : 78816
        },
        {
            "buffer" : 0,
            "byteLength" : 288,
            "byteOffset" : 79584
        },
        {
            "buffer" : 0,
            "byteLength" : 1152,
            "byteOffset" : 79872
        },
        {
            "buffer" : 0,
            "byteLength" : 1152,
            "byteOffset" : 81024
        },
        {
            "buffer" : 0,
            "byteLength" : 768,
            "byteOffset" : 82176
        },
        {
            "buffer" : 0,
            "byteLength" : 288,
            "byteOffset" : 82944
        }
    ],
    "buffers" : [
        {
            "byteLength" : 83232,
            "uri" : "data:application/octet-stream;base64,"
        }
    ]
}
