{
    "asset" : {
        "generator" : "Khronos glTF Blender I/O v1.1.46",
        "version" : "2.0"
    },
    "scene" : 0,
    "scenes" : [
        {
            "name" : "Scene",
            "nodes" : [
                0
            ]
        }
    ],
    "nodes" : [
        {
            "mesh" : 0,
            "name" : "cube"
        }
    ],
    "meshes" : [
        {
            "extras" : {
                "targetNames" : [
                    "cube.002",
                    "cube.001"
                ]
            },
            "name" : "Cube.001",
            "primitives" : [
                {
                    "attributes" : {
                        "POSITION" : 0,
                        "NORMAL" : 1,
                        "TEXCOORD_0" : 2
                    },
                    "indices" : 3,
                    "targets" : [
                        {
                            "POSITION" : 4,
                            "NORMAL" : 5
                        },
                        {
                            "POSITION" : 6,
                            "NORMAL" : 7
                        }
                    ]
                }
            ],
            "weights" : [
                0,
                0
            ]
        }
    ],
    "accessors" : [
        {
            "bufferView" : 0,
            "componentType" : 5126,
            "count" : 6144,
            "max" : [
                1.0039687156677246,
                1,
                1.0039687156677246
            ],
            "min" : [
                -1.0039687156677246,
                -1,
                -1.0039687156677246
            ],
            "type" : "VEC3"
        },
        {
            "bufferView" : 1,
            "componentType" : 5126,
            "count" : 6144,
            "type" : "VEC3"
        },
        {
            "bufferView" : 2,
            "componentType" : 5126,
            "count" : 6144,
            "type" : "VEC2"
        },
        {
            "bufferView" : 3,
            "componentType" : 5123,
            "count" : 9216,
            "type" : "SCALAR"
        },
        {
            "bufferView" : 4,
            "componentType" : 5126,
            "count" : 6144,
            "max" : [
                1.4784104824066162,
                0,
                1.4784104824066162
            ],
            "min" : [
                -1.4784104824066162,
                -1.012485146522522,
                -1.4784104824066162
            ],
            "type" : "VEC3"
        },
        {
            "bufferView" : 5,
            "componentType" : 5126,
            "count" : 6144,
            "type" : "VEC3"
        },
        {
            "bufferView" : 6,
            "componentType" : 5126,
            "count" : 6144,
            "max" : [
                0.7693221569061279,
                1.9650158882141113,
                0.7693221569061279
            ],
            "min" : [
                -0.7693221569061279,
                0,
                -0.7693221569061279
            ],
            "type" : "VEC3"
        },
        {
            "bufferView" : 7,
            "componentType" : 5126,
            "count" : 6144,
            "type" : "VEC3"
        }
    ],
    "bufferViews" : [
        {
            "buffer" : 0,
            "byteLength" : 73728,
            "byteOffset" : 0
        },
        {
            "buffer" : 0,
            "byteLength" : 73728,
            "byteOffset" : 73728
        },
        {
            "buffer" : 0,
            "byteLength" : 49152,
            "byteOffset" : 147456
        },
        {
            "buffer" : 0,
            "byteLength" : 18432,
            "byteOffset" : 196608
        },
        {
            "buffer" : 0,
            "byteLength" : 73728,
            "byteOffset" : 215040
        },
        {
            "buffer" : 0,
            "byteLength" : 73728,
            "byteOffset" : 288768
        },
        {
            "buffer" : 0,
            "byteLength" : 73728,
            "byteOffset" : 362496
        },
        {
            "buffer" : 0,
            "byteLength" : 73728,
            "byteOffset" : 436224
        }
    ],
    "buffers" : [
        {
            "byteLength" : 509952,
            "uri" : "data:application/octet-stream;base64,"
        }
    ]
}
