{
    "asset" : {
        "generator" : "Khronos glTF Blender I/O v1.1.46",
        "version" : "2.0"
    },
    "scene" : 0,
    "scenes" : [
        {
            "name" : "Scene",
            "nodes" : [
                0
            ]
        }
    ],
    "nodes" : [
        {
            "mesh" : 0,
            "name" : "Cube.009",
            "scale" : [
                2.5,
                0.5,
                0.5
            ],
            "translation" : [
                0,
                -5,
                -10
            ]
        }
    ],
    "meshes" : [
        {
            "name" : "Cube.013",
            "primitives" : [
                {
                    "attributes" : {
                        "POSITION" : 0,
                        "NORMAL" : 1,
                        "TEXCOORD_0" : 2
                    },
                    "indices" : 3
                }
            ]
        }
    ],
    "accessors" : [
        {
            "bufferView" : 0,
            "componentType" : 5126,
            "count" : 6656,
            "max" : [
                0.9990862011909485,
                5.026060104370117,
                2.351966142654419
            ],
            "min" : [
                -0.13325288891792297,
                -3.226487874984741,
                -2.351966381072998
            ],
            "type" : "VEC3"
        },
        {
            "bufferView" : 1,
            "componentType" : 5126,
            "count" : 6656,
            "type" : "VEC3"
        },
        {
            "bufferView" : 2,
            "componentType" : 5126,
            "count" : 6656,
            "type" : "VEC2"
        },
        {
            "bufferView" : 3,
            "componentType" : 5123,
            "count" : 9984,
            "type" : "SCALAR"
        }
    ],
    "bufferViews" : [
        {
            "buffer" : 0,
            "byteLength" : 79872,
            "byteOffset" : 0
        },
        {
            "buffer" : 0,
            "byteLength" : 79872,
            "byteOffset" : 79872
        },
        {
            "buffer" : 0,
            "byteLength" : 53248,
            "byteOffset" : 159744
        },
        {
            "buffer" : 0,
            "byteLength" : 19968,
            "byteOffset" : 212992
        }
    ],
    "buffers" : [
        {
            "byteLength" : 232960,
            "uri" : "data:application/octet-stream;base64,"
        }
    ]
}
