{
    "asset" : {
        "generator" : "Khronos glTF Blender I/O v1.1.46",
        "version" : "2.0"
    },
    "scene" : 0,
    "scenes" : [
        {
            "name" : "Scene",
            "nodes" : [
                0
            ]
        }
    ],
    "nodes" : [
        {
            "mesh" : 0,
            "name" : "Cube.007",
            "scale" : [
                2.5,
                0.5,
                0.5
            ],
            "translation" : [
                10,
                -5,
                0
            ]
        }
    ],
    "meshes" : [
        {
            "name" : "Cube.011",
            "primitives" : [
                {
                    "attributes" : {
                        "POSITION" : 0,
                        "NORMAL" : 1,
                        "TEXCOORD_0" : 2
                    },
                    "indices" : 3
                }
            ]
        }
    ],
    "accessors" : [
        {
            "bufferView" : 0,
            "componentType" : 5126,
            "count" : 6656,
            "max" : [
                1.021275281906128,
                1.9956508874893188,
                1.8299227952957153
            ],
            "min" : [
                -0.9604550004005432,
                -2.5298023223876953,
                -1.8299226760864258
            ],
            "type" : "VEC3"
        },
        {
            "bufferView" : 1,
            "componentType" : 5126,
            "count" : 6656,
            "type" : "VEC3"
        },
        {
            "bufferView" : 2,
            "componentType" : 5126,
            "count" : 6656,
            "type" : "VEC2"
        },
        {
            "bufferView" : 3,
            "componentType" : 5123,
            "count" : 9984,
            "type" : "SCALAR"
        }
    ],
    "bufferViews" : [
        {
            "buffer" : 0,
            "byteLength" : 79872,
            "byteOffset" : 0
        },
        {
            "buffer" : 0,
            "byteLength" : 79872,
            "byteOffset" : 79872
        },
        {
            "buffer" : 0,
            "byteLength" : 53248,
            "byteOffset" : 159744
        },
        {
            "buffer" : 0,
            "byteLength" : 19968,
            "byteOffset" : 212992
        }
    ],
    "buffers" : [
        {
            "byteLength" : 232960,
            "uri" : "data:application/octet-stream;base64,"
        }
    ]
}
